# xmcd CD database file
#
# Track frame offsets:
#	182
#	19995
#	39160
#	63462
#	80320
#	97795
#	117305
#	137622
#	152760
#	173997
#
# Disc length: 2555 seconds
#
# Revision: 0
# Processed by: cddbd v1.5.1PL0 Copyright (c) Steve Scherf et al.
# Submitted via: CDex 1.51
#
DISCID=7409f90a
DTITLE=村田和人 - MY CREW
DYEAR=1900
DGENRE=JPop
TTITLE0=WE LOVE YOU
TTITLE1=GIMME RAIN
TTITLE2=ISLAND
TTITLE3=WEEKEND LOVE
TTITLE4=あの波をつかまえて
TTITLE5=LAST TRAIN
TTITLE6=SEXY PACIFIC
TTITLE7=TO-NIGHT
TTITLE8=I'M LEAVING YOU
TTITLE9=SUMMER VACATION
EXTD=
EXTT0=
EXTT1=
EXTT2=
EXTT3=
EXTT4=
EXTT5=
EXTT6=
EXTT7=
EXTT8=
EXTT9=
PLAYORDER=
